Coordinates
version=1
nRows=7
nColumns=40
inDegrees=yes

Units are S.I. units (second, meters, Newtons, ...)
Angles are in degrees.

endheader
time	pelvis_tilt	pelvis_list	pelvis_rotation	pelvis_tx	pelvis_ty	pelvis_tz	hip_flexion_r	hip_adduction_r	hip_rotation_r	knee_angle_r	knee_angle_r_beta	ankle_angle_r	subtalar_angle_r	mtp_angle_r	hip_flexion_l	hip_adduction_l	hip_rotation_l	knee_angle_l	knee_angle_l_beta	ankle_angle_l	subtalar_angle_l	mtp_angle_l	lumbar_extension	lumbar_bending	lumbar_rotation	arm_flex_r	arm_add_r	arm_rot_r	elbow_flex_r	pro_sup_r	wrist_flex_r	wrist_dev_r	arm_flex_l	arm_add_l	arm_rot_l	elbow_flex_l	pro_sup_l	wrist_flex_l	wrist_dev_l
     30.55000000	     -6.58925200	     -5.91993838	     -2.67276149	      1.02516142	      0.93356701	      0.43323867	     34.52755317	     -7.64937207	     -7.33534068	     65.36912344	     65.36912344	      1.14486977	    -12.88500095	      0.09526057	     16.83568972	     -6.58515656	     -8.90696690	     21.71939933	     21.71939933	     13.39057244	     -7.68118617	      1.18701079	    -12.58054514	      7.84846162	      2.94774220	      3.81652304	    -14.05029939	     -4.02052280	     38.19194776	     45.76121878	      0.00000000	      0.00000000	      0.45405789	    -17.20478906	     -4.85936645	     71.66921807	     46.84369615	      0.00000000	      0.00000000
     30.56150000	     -6.37066377	     -5.88919828	     -2.96667951	      1.02373796	      0.93464193	      0.43308424	     35.48085278	     -7.61592131	     -7.31960212	     63.38362120	     63.38362120	      1.33329296	    -12.18708550	     -0.19622140	     15.54764144	     -6.51238606	     -9.37164902	     20.81054701	     20.81054701	     13.61260244	     -7.20855969	      1.15213941	    -12.98142306	      7.75552054	      3.06534246	      1.87034223	    -14.58437648	     -4.11262817	     36.36394356	     45.82721714	      0.00000000	      0.00000000	      1.87576056	    -17.63845708	     -5.09670531	     72.98710510	     46.90453538	      0.00000000	      0.00000000
     30.57300000	     -6.26592941	     -5.88862149	     -3.22618185	      1.02221705	      0.93530943	      0.43295876	     36.40070371	     -7.48366367	     -7.31569191	     61.14071740	     61.14071740	      1.25040661	    -11.71215440	     -0.57699944	     14.59404188	     -6.49228945	     -9.75727399	     20.25600754	     20.25600754	     13.80609309	     -6.90749017	      0.89302764	    -13.16474351	      7.72477283	      3.07654723	      0.23790818	    -14.97066061	     -4.37122508	     34.03128168	     45.92768643	      0.00000000	      0.00000000	      3.27192578	    -18.20091396	     -4.99375410	     74.44392464	     46.95015621	      0.00000000	      0.00000000
     30.58450000	     -6.20853603	     -5.92292323	     -3.41866436	      1.02068646	      0.93581404	      0.43289382	     37.12907456	     -7.30080012	     -7.41247884	     58.52164528	     58.52164528	      0.80729223	    -11.39159828	     -1.65387050	     13.70119517	     -6.49362802	    -10.07427500	     19.65406305	     19.65406305	     13.78136950	     -6.66522335	      0.16498758	    -13.24202398	      7.74625300	      2.69384645	     -0.37700700	    -14.93968370	     -5.76174583	     29.81798814	     46.19526935	      0.00000000	      0.00000000	      4.37984084	    -19.24445213	     -4.27868688	     75.80553669	     47.00524961	      0.00000000	      0.00000000
     30.59600000	     -6.11798864	     -5.93275541	     -3.60412565	      1.01927371	      0.93626834	      0.43286181	     37.67219916	     -7.11569416	     -7.49677362	     55.70115431	     55.70115431	      0.77097957	    -10.74398808	     -1.40025465	     12.77122863	     -6.44495373	    -10.32883213	     19.06332499	     19.06332499	     13.98851107	     -6.42726568	      0.09320320	    -13.39534838	      7.75377083	      2.54105580	     -2.11638641	    -15.33545756	     -6.03610625	     28.62027876	     46.25254388	      0.00000000	      0.00000000	      5.69560732	    -19.62022655	     -4.71646364	     76.95748767	     47.07443914	      0.00000000	      0.00000000
     30.60750000	     -6.03167822	     -5.91234154	     -3.75083209	      1.01792694	      0.93653061	      0.43292699	     38.03895727	     -6.94152457	     -7.60651642	     52.60631449	     52.60631449	      0.71479960	    -10.05721373	     -1.07291546	     11.86688282	     -6.37149627	    -10.61334358	     18.49552323	     18.49552323	     14.19685051	     -6.11968292	     -0.08825751	    -13.51388940	      7.72019157	      2.35412752	     -3.71680931	    -15.64622661	     -6.33604920	     27.33299925	     46.31881588	      0.00000000	      0.00000000	      6.97118893	    -20.12054595	     -4.92948908	     78.17743805	     47.12934567	      0.00000000	      0.00000000
     30.61900000	     -5.96892576	     -5.87504952	     -3.85059634	      1.01666693	      0.93660590	      0.43308691	     38.23180751	     -6.76744499	     -7.76316118	     49.21338572	     49.21338572	      0.62204676	     -9.30680690	     -0.68433784	     10.99605494	     -6.27901301	    -10.87338373	     17.92730782	     17.92730782	     14.39621314	     -5.77060893	     -0.33156277	    -13.56879065	      7.65625525	      2.07881046	     -5.24109034	    -15.89461156	     -6.65258143	     26.18565061	     46.38271594	      0.00000000	      0.00000000	      8.16940293	    -20.69461768	     -5.05182110	     79.38823328	     47.17690646	      0.00000000	      0.00000000
